<svg width="20.000000" height="18.349976" viewBox="0 0 20 18.35" fill="none" xmlns="http://www.w3.org/2000/svg" xmlns:xlink="http://www.w3.org/1999/xlink">
	<desc>
			Created with Pixso.
	</desc>
	<defs/>
	<path id="Vector" d="M10 18.35L8.54 17.03C3.4 12.36 0 9.28 0 5.5C0 2.42 2.41 0 5.5 0C7.24 0 8.91 0.81 10 2.08C11.08 0.81 12.75 0 14.5 0C17.58 0 20 2.42 20 5.5C20 9.28 16.59 12.36 11.45 17.04L10 18.35Z" fill="#FFFFFF" fill-opacity="0" fill-rule="nonzero"/>
	<path id="Vector" d="M9.28 1.38C8.24 0.52 6.89 0 5.5 0C2.41 0 0 2.42 0 5.5C0 9.28 3.4 12.36 8.54 17.03L10 18.35L11.45 17.04C16.59 12.36 20 9.28 20 5.5C20 2.42 17.58 0 14.5 0C13.1 0 11.75 0.52 10.71 1.38C10.45 1.6 10.21 1.83 10 2.08C9.78 1.83 9.54 1.6 9.28 1.38ZM10 17L9.22 16.29L9.22 16.28L9.2 16.27Q7.95 15.13 7.37 14.6Q6.41 13.72 5.72 13.06Q4.07 11.47 3.11 10.29Q2.03 8.97 1.52 7.82Q1 6.65 1 5.5Q1 4.85 1.16 4.25Q1.24 3.98 1.34 3.72Q1.52 3.3 1.77 2.93Q2 2.59 2.3 2.3Q2.59 2 2.93 1.77Q3.3 1.52 3.72 1.34Q3.98 1.24 4.25 1.16Q4.85 1 5.5 1Q5.84 1 6.18 1.04Q6.89 1.15 7.56 1.46Q8.2 1.77 8.72 2.21Q8.99 2.45 9.23 2.73L10 3.63L10.76 2.73Q11 2.45 11.27 2.21Q11.79 1.77 12.43 1.46Q13.1 1.15 13.81 1.04Q14.15 1 14.5 1Q15.14 1 15.75 1.16Q16.01 1.24 16.27 1.34Q16.69 1.52 17.06 1.77Q17.4 2 17.69 2.3Q17.99 2.59 18.22 2.93Q18.47 3.3 18.65 3.72Q18.75 3.98 18.83 4.25Q19 4.85 19 5.5Q19 6.65 18.47 7.82Q17.96 8.96 16.89 10.28Q15.93 11.46 14.28 13.05Q13.6 13.71 12.64 14.59Q12.06 15.12 10.81 16.26L10.8 16.27L10.8 16.27L10.8 16.27L10.8 16.27L10.79 16.28L10.79 16.28L10.79 16.28L10.79 16.28L10.78 16.29L10.78 16.29L10.78 16.29L10.78 16.29L10.77 16.29L10 17Z" fill="#FFFFFF" fill-opacity="1.000000" fill-rule="evenodd"/>
</svg>
