<svg width="24.000000" height="24.000000" viewBox="0 0 24 24" fill="none" xmlns="http://www.w3.org/2000/svg" xmlns:xlink="http://www.w3.org/1999/xlink">
	<desc>
			Created with Pixso.
	</desc>
	<defs>
		<clipPath id="clip8_32220">
			<rect id="shopping-cart" rx="0.000000" width="23.000000" height="23.000000" transform="translate(0.500000 0.500000)" fill="white" fill-opacity="0"/>
		</clipPath>
	</defs>
	<rect id="shopping-cart" rx="0.000000" width="23.000000" height="23.000000" transform="translate(0.500000 0.500000)" fill="#FFFFFF" fill-opacity="0"/>
	<g clip-path="url(#clip8_32220)">
		<path id="Vector (Stroke)" d="M7 21C7 19.89 7.89 19 9 19C10.1 19 11 19.89 11 21C11 22.1 10.1 23 9 23C7.89 23 7 22.1 7 21Z" fill="#FFFFFF" fill-opacity="1.000000" fill-rule="evenodd"/>
		<path id="Vector (Stroke)" d="M18 21C18 19.89 18.89 19 20 19C21.1 19 22 19.89 22 21C22 22.1 21.1 23 20 23C18.89 23 18 22.1 18 21Z" fill="#FFFFFF" fill-opacity="1.000000" fill-rule="evenodd"/>
		<path id="Vector (Stroke)" d="M0 1C0 0.44 0.44 0 1 0L5 0C5.47 0 5.88 0.33 5.98 0.8L6.82 5L23 5C23.29 5 23.58 5.13 23.77 5.36C23.96 5.59 24.03 5.89 23.98 6.18L22.38 14.58C22.24 15.27 21.86 15.89 21.31 16.33C20.77 16.77 20.09 17.01 19.39 17L9.68 17C8.98 17.01 8.3 16.77 7.76 16.33C7.21 15.89 6.83 15.27 6.69 14.58L5.02 6.23C5.02 6.21 5.01 6.18 5.01 6.15L4.18 2L1 2C0.44 2 0 1.55 0 1ZM7.22 7L8.66 14.19C8.7 14.42 8.83 14.63 9.01 14.77C9.19 14.92 9.42 15 9.66 15L9.67 15L19.4 15L19.41 15C19.65 15 19.88 14.92 20.06 14.77C20.24 14.63 20.37 14.42 20.41 14.19L21.79 7L7.22 7Z" fill="#FFFFFF" fill-opacity="1.000000" fill-rule="evenodd"/>
	</g>
</svg>
