<svg width="66.000000" height="36.000000" viewBox="0 0 66 36" fill="none" xmlns="http://www.w3.org/2000/svg" xmlns:xlink="http://www.w3.org/1999/xlink">
	<desc>
			Created with Pixso.
	</desc>
	<defs>
		<clipPath id="clip8_32220">
			<rect id="shopping-cart" rx="0.000000" width="23.000000" height="23.000000" transform="translate(21.500000 6.500000)" fill="white" fill-opacity="0"/>
		</clipPath>
	</defs>
	<rect id="Rectangle 73" x="18.000000" width="48.000000" height="36.000000" fill="#429F3A" fill-opacity="1.000000"/>
	<circle id="Ellipse 7" cx="18.000000" cy="18.000000" r="18.000000" fill="#429F3A" fill-opacity="1.000000"/>
	<rect id="shopping-cart" rx="0.000000" width="23.000000" height="23.000000" transform="translate(21.500000 6.500000)" fill="#FFFFFF" fill-opacity="0"/>
	<g clip-path="url(#clip8_32220)">
		<path id="Vector (Stroke)" d="M28 27C28 25.89 28.89 25 30 25C31.1 25 32 25.89 32 27C32 28.1 31.1 29 30 29C28.89 29 28 28.1 28 27Z" fill="#FFFFFF" fill-opacity="1.000000" fill-rule="evenodd"/>
		<path id="Vector (Stroke)" d="M39 27C39 25.89 39.89 25 41 25C42.1 25 43 25.89 43 27C43 28.1 42.1 29 41 29C39.89 29 39 28.1 39 27Z" fill="#FFFFFF" fill-opacity="1.000000" fill-rule="evenodd"/>
		<path id="Vector (Stroke)" d="M21 7C21 6.44 21.44 6 22 6L26 6C26.47 6 26.88 6.33 26.98 6.8L27.82 11L44 11C44.29 11 44.58 11.13 44.77 11.36C44.96 11.59 45.03 11.89 44.98 12.18L43.38 20.58C43.24 21.27 42.86 21.89 42.31 22.33C41.77 22.77 41.09 23.01 40.39 23L30.68 23C29.98 23.01 29.3 22.77 28.76 22.33C28.21 21.89 27.83 21.27 27.69 20.58L26.02 12.23C26.02 12.21 26.01 12.18 26.01 12.15L25.18 8L22 8C21.44 8 21 7.55 21 7ZM28.22 13L29.66 20.19C29.7 20.42 29.83 20.63 30.01 20.77C30.19 20.92 30.42 21 30.66 21L30.67 21L40.4 21L40.41 21C40.65 21 40.88 20.92 41.06 20.77C41.24 20.63 41.37 20.42 41.41 20.19L42.79 13L28.22 13Z" fill="#FFFFFF" fill-opacity="1.000000" fill-rule="evenodd"/>
	</g>
</svg>
